<svg width="22" height="22" viewBox="0 0 22 22" fill="none" xmlns="http://www.w3.org/2000/svg">
<path d="M4.19833 7.88971L1.83333 7.74946C3.52825 3.3953 8.39483 0.916628 13.1386 2.14863C18.1922 3.46221 21.1942 8.49013 19.8431 13.3778C18.7257 17.4212 14.9811 20.1034 10.8598 20.1666" stroke="white" stroke-linecap="round" stroke-linejoin="round"/>
<path d="M11 20.1667C5.95833 20.1667 1.83333 15.5834 1.83333 10.0834M12.4703 8.91185C12.1477 8.57268 11.3584 7.77793 10.1099 8.34352C8.86233 8.90727 8.66433 10.7232 10.5517 10.9166C11.4042 11.0037 11.9607 10.8158 12.4703 11.3474C12.98 11.8809 13.0744 13.3623 11.7727 13.7619C10.4711 14.1616 9.62683 13.5016 9.40042 13.2954M10.9157 7.35168V8.07585M10.9157 13.8848V14.685" stroke="white" stroke-linecap="round" stroke-linejoin="round"/>
</svg>
