<svg width="24" height="24" viewBox="0 0 24 24" fill="none" xmlns="http://www.w3.org/2000/svg">
<path d="M7.2 9.00005C7.2 8.84092 7.26321 8.68831 7.37574 8.57578C7.48826 8.46326 7.64087 8.40005 7.8 8.40005C7.95913 8.40005 8.11174 8.46326 8.22426 8.57578C8.33679 8.68831 8.4 8.84092 8.4 9.00005V10.8H10.2C10.3591 10.8 10.5117 10.8633 10.6243 10.9758C10.7368 11.0883 10.8 11.2409 10.8 11.4C10.8 11.5592 10.7368 11.7118 10.6243 11.8243C10.5117 11.9368 10.3591 12 10.2 12H8.4V13.8C8.4 13.9592 8.33679 14.1118 8.22426 14.2243C8.11174 14.3368 7.95913 14.4 7.8 14.4C7.64087 14.4 7.48826 14.3368 7.37574 14.2243C7.26321 14.1118 7.2 13.9592 7.2 13.8V12H5.4C5.24087 12 5.08826 11.9368 4.97574 11.8243C4.86321 11.7118 4.8 11.5592 4.8 11.4C4.8 11.2409 4.86321 11.0883 4.97574 10.9758C5.08826 10.8633 5.24087 10.8 5.4 10.8H7.2V9.00005ZM18 9.60005C18 9.91831 17.8736 10.2235 17.6485 10.4486C17.4235 10.6736 17.1183 10.8 16.8 10.8C16.4817 10.8 16.1765 10.6736 15.9515 10.4486C15.7264 10.2235 15.6 9.91831 15.6 9.60005C15.6 9.28179 15.7264 8.97656 15.9515 8.75152C16.1765 8.52648 16.4817 8.40005 16.8 8.40005C17.1183 8.40005 17.4235 8.52648 17.6485 8.75152C17.8736 8.97656 18 9.28179 18 9.60005ZM14.4 14.4C14.7183 14.4 15.0235 14.2736 15.2485 14.0486C15.4736 13.8235 15.6 13.5183 15.6 13.2C15.6 12.8818 15.4736 12.5766 15.2485 12.3515C15.0235 12.1265 14.7183 12 14.4 12C14.0817 12 13.7765 12.1265 13.5515 12.3515C13.3264 12.5766 13.2 12.8818 13.2 13.2C13.2 13.5183 13.3264 13.8235 13.5515 14.0486C13.7765 14.2736 14.0817 14.4 14.4 14.4ZM2.4 11.4C2.4 9.64962 3.09536 7.97088 4.3331 6.73314C5.57084 5.4954 7.24957 4.80005 9 4.80005H15C16.7504 4.80005 18.4292 5.4954 19.6669 6.73314C20.9046 7.97088 21.6 9.64962 21.6 11.4C21.6 13.1505 20.9046 14.8292 19.6669 16.067C18.4292 17.3047 16.7504 18 15 18H9C7.24957 18 5.57084 17.3047 4.3331 16.067C3.09536 14.8292 2.4 13.1505 2.4 11.4ZM9 6.00005C7.56783 6.00005 6.19432 6.56898 5.18162 7.58167C4.16893 8.59437 3.6 9.96788 3.6 11.4C3.6 12.8322 4.16893 14.2057 5.18162 15.2184C6.19432 16.2311 7.56783 16.8 9 16.8H15C15.7091 16.8 16.4113 16.6604 17.0665 16.389C17.7216 16.1176 18.3169 15.7199 18.8184 15.2184C19.3198 14.717 19.7176 14.1217 19.9889 13.4665C20.2603 12.8114 20.4 12.1092 20.4 11.4C20.4 10.6909 20.2603 9.98872 19.9889 9.33356C19.7176 8.6784 19.3198 8.08311 18.8184 7.58167C18.3169 7.08024 17.7216 6.68247 17.0665 6.4111C16.4113 6.13972 15.7091 6.00005 15 6.00005H9Z" fill="white"/>
</svg>
