<svg width="24" height="24" viewBox="0 0 24 24" fill="none" xmlns="http://www.w3.org/2000/svg">
<path d="M12 19.9999C13.25 19.9999 14.3127 19.5626 15.188 18.6879C16.0633 17.8133 16.5007 16.7506 16.5 15.4999C16.4993 14.2493 16.062 13.1869 15.188 12.3129C14.314 11.4389 13.2513 11.0013 12 10.9999C10.7487 10.9986 9.68633 11.4363 8.813 12.3129C7.93967 13.1896 7.502 14.2519 7.5 15.4999C7.498 16.7479 7.93567 17.8106 8.813 18.6879C9.69033 19.5653 10.7527 20.0026 12 19.9999ZM9.114 10.8349C9.434 10.6256 9.775 10.4573 10.137 10.3299C10.4997 10.2026 10.8727 10.1093 11.256 10.0499L8.98 5.53794H6.48L9.114 10.8349ZM7.227 18.9349C7.23833 18.8229 7.26433 18.6996 7.305 18.5649C7.345 18.4289 7.40367 18.2856 7.481 18.1349C7.173 17.6369 6.951 17.0993 6.815 16.5219C6.679 15.9446 6.64333 15.3503 6.708 14.7389C6.708 14.2389 6.79467 13.7643 6.968 13.3149C7.14067 12.8663 7.38067 12.4626 7.688 12.1039C7.45 12.1446 7.24067 12.2299 7.06 12.3599C6.87933 12.4906 6.75033 12.6463 6.673 12.8269C5.92967 13.0076 5.35033 13.4259 4.935 14.0819C4.51967 14.7379 4.39267 15.4646 4.554 16.2619C4.554 17.0053 4.81367 17.6366 5.333 18.1559C5.85233 18.6753 6.48367 18.9356 7.227 18.9349ZM16.773 18.9339C17.6783 18.8806 18.4427 18.5259 19.066 17.8699C19.6887 17.2146 20 16.4246 20 15.4999C20 14.5753 19.6883 13.7853 19.065 13.1299C18.4417 12.4746 17.6777 12.1196 16.773 12.0649C16.6963 12.0649 16.6197 12.0683 16.543 12.0749C16.4657 12.0816 16.3883 12.0913 16.311 12.1039C16.6843 12.5746 16.9757 13.0986 17.185 13.6759C17.395 14.2533 17.5 14.8613 17.5 15.4999C17.5 16.1386 17.3953 16.7466 17.186 17.3239C16.976 17.9013 16.6847 18.4253 16.312 18.8959C16.3887 18.9093 16.4653 18.9189 16.542 18.9249C16.6193 18.9316 16.6963 18.9339 16.773 18.9339ZM12 20.9999C11.3593 20.9999 10.754 20.9009 10.184 20.7029C9.614 20.5049 9.09633 20.2199 8.631 19.8479C8.455 19.9073 8.26967 19.9473 8.075 19.9679C7.88033 19.9886 7.68033 19.9993 7.475 19.9999C6.24033 19.9999 5.186 19.5629 4.312 18.6889C3.438 17.8149 3.00067 16.7603 3 15.5249C3 14.3056 3.42567 13.2626 4.277 12.3959C5.12833 11.5293 6.15967 11.0826 7.371 11.0559C7.51233 11.0559 7.647 11.0656 7.775 11.0849C7.903 11.1036 8.031 11.1259 8.159 11.1519L5.438 5.69994C5.29667 5.43061 5.306 5.16961 5.466 4.91694C5.62533 4.66494 5.85833 4.53894 6.165 4.53894H8.62C8.92667 4.53894 9.20533 4.61961 9.456 4.78094C9.70667 4.94227 9.90433 5.15761 10.049 5.42694L12 9.30694L13.95 5.42694C14.0947 5.15761 14.2923 4.94227 14.543 4.78094C14.7937 4.61961 15.0723 4.53894 15.379 4.53894H17.836C18.1427 4.53894 18.376 4.66494 18.536 4.91694C18.6953 5.17027 18.7043 5.43127 18.563 5.69994L15.885 11.0829C16.0003 11.0569 16.119 11.0376 16.241 11.0249C16.3623 11.0116 16.4873 11.0049 16.616 11.0049C17.84 11.0363 18.8767 11.4853 19.726 12.3519C20.5753 13.2186 21 14.2679 21 15.4999C21 16.7513 20.563 17.8143 19.689 18.6889C18.815 19.5636 17.752 20.0006 16.5 19.9999C16.2987 19.9999 16.103 19.9893 15.913 19.9679C15.723 19.9466 15.5397 19.9066 15.363 19.8479C14.8983 20.2073 14.3817 20.4889 13.813 20.6929C13.2443 20.8969 12.64 20.9993 12 20.9999ZM12 16.5999L10.929 17.4099C10.8417 17.4673 10.761 17.4683 10.687 17.4129C10.613 17.3576 10.5923 17.2843 10.625 17.1929L11.023 15.8589L9.971 15.0999C9.88433 15.0426 9.85767 14.9693 9.891 14.8799C9.92433 14.7906 9.98833 14.7459 10.083 14.7459H11.391L11.808 13.3519C11.8413 13.2613 11.9053 13.2159 12 13.2159C12.0947 13.2159 12.1587 13.2613 12.192 13.3519L12.609 14.7459H13.917C14.0117 14.7459 14.0757 14.7906 14.109 14.8799C14.1423 14.9693 14.1157 15.0426 14.029 15.0999L12.977 15.8599L13.375 17.1919C13.4083 17.2833 13.388 17.3566 13.314 17.4119C13.24 17.4673 13.159 17.4666 13.071 17.4099L12 16.5999ZM14.887 10.8349L17.544 5.53894H15.02L12.837 9.86494L12.947 10.0849C13.2957 10.1516 13.633 10.2449 13.959 10.3649C14.2843 10.4849 14.5937 10.6416 14.887 10.8349Z" fill="white"/>
</svg>
