<svg width="22" height="22" viewBox="0 0 22 22" fill="none" xmlns="http://www.w3.org/2000/svg">
<path d="M2.06387 7.50114L5.7365 3.51639C5.82849 3.41841 5.93973 3.34049 6.06323 3.28749C6.18674 3.23449 6.31986 3.20756 6.45425 3.20839H15.5457C15.6801 3.20756 15.8133 3.23449 15.9368 3.28749C16.0603 3.34049 16.1715 3.41841 16.2635 3.51639L19.9361 7.50114C20.0869 7.66133 20.1695 7.87385 20.1665 8.0938C20.1635 8.31376 20.0752 8.52395 19.9201 8.67998L11.3437 18.4021C11.3007 18.4509 11.2478 18.49 11.1886 18.5167C11.1293 18.5435 11.065 18.5573 11 18.5573C10.935 18.5573 10.8707 18.5435 10.8114 18.5167C10.7522 18.49 10.6993 18.4509 10.6562 18.4021L2.07992 8.67998C1.92485 8.52395 1.83649 8.31376 1.8335 8.0938C1.8305 7.87385 1.91311 7.66133 2.06387 7.50114Z" stroke="white" stroke-width="1.5" stroke-linecap="round" stroke-linejoin="round"/>
<path d="M7.33333 9.16675L11 13.2917L14.6667 9.16675" stroke="white" stroke-width="1.5" stroke-linecap="round" stroke-linejoin="round"/>
</svg>
